G04 EAGLE Gerber RS-274X export*
G75*
%MOMM*%
%FSLAX34Y34*%
%LPD*%
%INSolderpaste Bottom*%
%IPPOS*%
%AMOC8*
5,1,8,0,0,1.08239X$1,22.5*%
G01*
%ADD10C,0.300000*%


D10*
X63930Y9200D02*
X63930Y16200D01*
X70930Y16200D01*
X70930Y9200D01*
X63930Y9200D01*
X63930Y12050D02*
X70930Y12050D01*
X70930Y14900D02*
X63930Y14900D01*
X81470Y16200D02*
X81470Y9200D01*
X81470Y16200D02*
X88470Y16200D01*
X88470Y9200D01*
X81470Y9200D01*
X81470Y12050D02*
X88470Y12050D01*
X88470Y14900D02*
X81470Y14900D01*
X63930Y174300D02*
X63930Y181300D01*
X70930Y181300D01*
X70930Y174300D01*
X63930Y174300D01*
X63930Y177150D02*
X70930Y177150D01*
X70930Y180000D02*
X63930Y180000D01*
X81470Y181300D02*
X81470Y174300D01*
X81470Y181300D02*
X88470Y181300D01*
X88470Y174300D01*
X81470Y174300D01*
X81470Y177150D02*
X88470Y177150D01*
X88470Y180000D02*
X81470Y180000D01*
X63930Y163520D02*
X63930Y156520D01*
X63930Y163520D02*
X70930Y163520D01*
X70930Y156520D01*
X63930Y156520D01*
X63930Y159370D02*
X70930Y159370D01*
X70930Y162220D02*
X63930Y162220D01*
X81470Y163520D02*
X81470Y156520D01*
X81470Y163520D02*
X88470Y163520D01*
X88470Y156520D01*
X81470Y156520D01*
X81470Y159370D02*
X88470Y159370D01*
X88470Y162220D02*
X81470Y162220D01*
X221410Y16200D02*
X221410Y9200D01*
X221410Y16200D02*
X228410Y16200D01*
X228410Y9200D01*
X221410Y9200D01*
X221410Y12050D02*
X228410Y12050D01*
X228410Y14900D02*
X221410Y14900D01*
X238950Y16200D02*
X238950Y9200D01*
X238950Y16200D02*
X245950Y16200D01*
X245950Y9200D01*
X238950Y9200D01*
X238950Y12050D02*
X245950Y12050D01*
X245950Y14900D02*
X238950Y14900D01*
X221410Y174300D02*
X221410Y181300D01*
X228410Y181300D01*
X228410Y174300D01*
X221410Y174300D01*
X221410Y177150D02*
X228410Y177150D01*
X228410Y180000D02*
X221410Y180000D01*
X238950Y181300D02*
X238950Y174300D01*
X238950Y181300D02*
X245950Y181300D01*
X245950Y174300D01*
X238950Y174300D01*
X238950Y177150D02*
X245950Y177150D01*
X245950Y180000D02*
X238950Y180000D01*
X221410Y163520D02*
X221410Y156520D01*
X221410Y163520D02*
X228410Y163520D01*
X228410Y156520D01*
X221410Y156520D01*
X221410Y159370D02*
X228410Y159370D01*
X228410Y162220D02*
X221410Y162220D01*
X238950Y163520D02*
X238950Y156520D01*
X238950Y163520D02*
X245950Y163520D01*
X245950Y156520D01*
X238950Y156520D01*
X238950Y159370D02*
X245950Y159370D01*
X245950Y162220D02*
X238950Y162220D01*
X378890Y16200D02*
X378890Y9200D01*
X378890Y16200D02*
X385890Y16200D01*
X385890Y9200D01*
X378890Y9200D01*
X378890Y12050D02*
X385890Y12050D01*
X385890Y14900D02*
X378890Y14900D01*
X396430Y16200D02*
X396430Y9200D01*
X396430Y16200D02*
X403430Y16200D01*
X403430Y9200D01*
X396430Y9200D01*
X396430Y12050D02*
X403430Y12050D01*
X403430Y14900D02*
X396430Y14900D01*
X378890Y174300D02*
X378890Y181300D01*
X385890Y181300D01*
X385890Y174300D01*
X378890Y174300D01*
X378890Y177150D02*
X385890Y177150D01*
X385890Y180000D02*
X378890Y180000D01*
X396430Y181300D02*
X396430Y174300D01*
X396430Y181300D02*
X403430Y181300D01*
X403430Y174300D01*
X396430Y174300D01*
X396430Y177150D02*
X403430Y177150D01*
X403430Y180000D02*
X396430Y180000D01*
X378890Y163520D02*
X378890Y156520D01*
X378890Y163520D02*
X385890Y163520D01*
X385890Y156520D01*
X378890Y156520D01*
X378890Y159370D02*
X385890Y159370D01*
X385890Y162220D02*
X378890Y162220D01*
X396430Y163520D02*
X396430Y156520D01*
X396430Y163520D02*
X403430Y163520D01*
X403430Y156520D01*
X396430Y156520D01*
X396430Y159370D02*
X403430Y159370D01*
X403430Y162220D02*
X396430Y162220D01*
X536370Y16200D02*
X536370Y9200D01*
X536370Y16200D02*
X543370Y16200D01*
X543370Y9200D01*
X536370Y9200D01*
X536370Y12050D02*
X543370Y12050D01*
X543370Y14900D02*
X536370Y14900D01*
X553910Y16200D02*
X553910Y9200D01*
X553910Y16200D02*
X560910Y16200D01*
X560910Y9200D01*
X553910Y9200D01*
X553910Y12050D02*
X560910Y12050D01*
X560910Y14900D02*
X553910Y14900D01*
X536370Y174300D02*
X536370Y181300D01*
X543370Y181300D01*
X543370Y174300D01*
X536370Y174300D01*
X536370Y177150D02*
X543370Y177150D01*
X543370Y180000D02*
X536370Y180000D01*
X553910Y181300D02*
X553910Y174300D01*
X553910Y181300D02*
X560910Y181300D01*
X560910Y174300D01*
X553910Y174300D01*
X553910Y177150D02*
X560910Y177150D01*
X560910Y180000D02*
X553910Y180000D01*
X536370Y163520D02*
X536370Y156520D01*
X536370Y163520D02*
X543370Y163520D01*
X543370Y156520D01*
X536370Y156520D01*
X536370Y159370D02*
X543370Y159370D01*
X543370Y162220D02*
X536370Y162220D01*
X553910Y163520D02*
X553910Y156520D01*
X553910Y163520D02*
X560910Y163520D01*
X560910Y156520D01*
X553910Y156520D01*
X553910Y159370D02*
X560910Y159370D01*
X560910Y162220D02*
X553910Y162220D01*
X693850Y16200D02*
X693850Y9200D01*
X693850Y16200D02*
X700850Y16200D01*
X700850Y9200D01*
X693850Y9200D01*
X693850Y12050D02*
X700850Y12050D01*
X700850Y14900D02*
X693850Y14900D01*
X711390Y16200D02*
X711390Y9200D01*
X711390Y16200D02*
X718390Y16200D01*
X718390Y9200D01*
X711390Y9200D01*
X711390Y12050D02*
X718390Y12050D01*
X718390Y14900D02*
X711390Y14900D01*
X693850Y174300D02*
X693850Y181300D01*
X700850Y181300D01*
X700850Y174300D01*
X693850Y174300D01*
X693850Y177150D02*
X700850Y177150D01*
X700850Y180000D02*
X693850Y180000D01*
X711390Y181300D02*
X711390Y174300D01*
X711390Y181300D02*
X718390Y181300D01*
X718390Y174300D01*
X711390Y174300D01*
X711390Y177150D02*
X718390Y177150D01*
X718390Y180000D02*
X711390Y180000D01*
X693850Y163520D02*
X693850Y156520D01*
X693850Y163520D02*
X700850Y163520D01*
X700850Y156520D01*
X693850Y156520D01*
X693850Y159370D02*
X700850Y159370D01*
X700850Y162220D02*
X693850Y162220D01*
X711390Y163520D02*
X711390Y156520D01*
X711390Y163520D02*
X718390Y163520D01*
X718390Y156520D01*
X711390Y156520D01*
X711390Y159370D02*
X718390Y159370D01*
X718390Y162220D02*
X711390Y162220D01*
X851330Y16200D02*
X851330Y9200D01*
X851330Y16200D02*
X858330Y16200D01*
X858330Y9200D01*
X851330Y9200D01*
X851330Y12050D02*
X858330Y12050D01*
X858330Y14900D02*
X851330Y14900D01*
X868870Y16200D02*
X868870Y9200D01*
X868870Y16200D02*
X875870Y16200D01*
X875870Y9200D01*
X868870Y9200D01*
X868870Y12050D02*
X875870Y12050D01*
X875870Y14900D02*
X868870Y14900D01*
X851330Y174300D02*
X851330Y181300D01*
X858330Y181300D01*
X858330Y174300D01*
X851330Y174300D01*
X851330Y177150D02*
X858330Y177150D01*
X858330Y180000D02*
X851330Y180000D01*
X868870Y181300D02*
X868870Y174300D01*
X868870Y181300D02*
X875870Y181300D01*
X875870Y174300D01*
X868870Y174300D01*
X868870Y177150D02*
X875870Y177150D01*
X875870Y180000D02*
X868870Y180000D01*
X851330Y163520D02*
X851330Y156520D01*
X851330Y163520D02*
X858330Y163520D01*
X858330Y156520D01*
X851330Y156520D01*
X851330Y159370D02*
X858330Y159370D01*
X858330Y162220D02*
X851330Y162220D01*
X868870Y163520D02*
X868870Y156520D01*
X868870Y163520D02*
X875870Y163520D01*
X875870Y156520D01*
X868870Y156520D01*
X868870Y159370D02*
X875870Y159370D01*
X875870Y162220D02*
X868870Y162220D01*
X63930Y217480D02*
X63930Y224480D01*
X70930Y224480D01*
X70930Y217480D01*
X63930Y217480D01*
X63930Y220330D02*
X70930Y220330D01*
X70930Y223180D02*
X63930Y223180D01*
X81470Y224480D02*
X81470Y217480D01*
X81470Y224480D02*
X88470Y224480D01*
X88470Y217480D01*
X81470Y217480D01*
X81470Y220330D02*
X88470Y220330D01*
X88470Y223180D02*
X81470Y223180D01*
X63930Y382580D02*
X63930Y389580D01*
X70930Y389580D01*
X70930Y382580D01*
X63930Y382580D01*
X63930Y385430D02*
X70930Y385430D01*
X70930Y388280D02*
X63930Y388280D01*
X81470Y389580D02*
X81470Y382580D01*
X81470Y389580D02*
X88470Y389580D01*
X88470Y382580D01*
X81470Y382580D01*
X81470Y385430D02*
X88470Y385430D01*
X88470Y388280D02*
X81470Y388280D01*
X63930Y371800D02*
X63930Y364800D01*
X63930Y371800D02*
X70930Y371800D01*
X70930Y364800D01*
X63930Y364800D01*
X63930Y367650D02*
X70930Y367650D01*
X70930Y370500D02*
X63930Y370500D01*
X81470Y371800D02*
X81470Y364800D01*
X81470Y371800D02*
X88470Y371800D01*
X88470Y364800D01*
X81470Y364800D01*
X81470Y367650D02*
X88470Y367650D01*
X88470Y370500D02*
X81470Y370500D01*
X221410Y224480D02*
X221410Y217480D01*
X221410Y224480D02*
X228410Y224480D01*
X228410Y217480D01*
X221410Y217480D01*
X221410Y220330D02*
X228410Y220330D01*
X228410Y223180D02*
X221410Y223180D01*
X238950Y224480D02*
X238950Y217480D01*
X238950Y224480D02*
X245950Y224480D01*
X245950Y217480D01*
X238950Y217480D01*
X238950Y220330D02*
X245950Y220330D01*
X245950Y223180D02*
X238950Y223180D01*
X221410Y382580D02*
X221410Y389580D01*
X228410Y389580D01*
X228410Y382580D01*
X221410Y382580D01*
X221410Y385430D02*
X228410Y385430D01*
X228410Y388280D02*
X221410Y388280D01*
X238950Y389580D02*
X238950Y382580D01*
X238950Y389580D02*
X245950Y389580D01*
X245950Y382580D01*
X238950Y382580D01*
X238950Y385430D02*
X245950Y385430D01*
X245950Y388280D02*
X238950Y388280D01*
X221410Y371800D02*
X221410Y364800D01*
X221410Y371800D02*
X228410Y371800D01*
X228410Y364800D01*
X221410Y364800D01*
X221410Y367650D02*
X228410Y367650D01*
X228410Y370500D02*
X221410Y370500D01*
X238950Y371800D02*
X238950Y364800D01*
X238950Y371800D02*
X245950Y371800D01*
X245950Y364800D01*
X238950Y364800D01*
X238950Y367650D02*
X245950Y367650D01*
X245950Y370500D02*
X238950Y370500D01*
X378890Y224480D02*
X378890Y217480D01*
X378890Y224480D02*
X385890Y224480D01*
X385890Y217480D01*
X378890Y217480D01*
X378890Y220330D02*
X385890Y220330D01*
X385890Y223180D02*
X378890Y223180D01*
X396430Y224480D02*
X396430Y217480D01*
X396430Y224480D02*
X403430Y224480D01*
X403430Y217480D01*
X396430Y217480D01*
X396430Y220330D02*
X403430Y220330D01*
X403430Y223180D02*
X396430Y223180D01*
X378890Y382580D02*
X378890Y389580D01*
X385890Y389580D01*
X385890Y382580D01*
X378890Y382580D01*
X378890Y385430D02*
X385890Y385430D01*
X385890Y388280D02*
X378890Y388280D01*
X396430Y389580D02*
X396430Y382580D01*
X396430Y389580D02*
X403430Y389580D01*
X403430Y382580D01*
X396430Y382580D01*
X396430Y385430D02*
X403430Y385430D01*
X403430Y388280D02*
X396430Y388280D01*
X378890Y371800D02*
X378890Y364800D01*
X378890Y371800D02*
X385890Y371800D01*
X385890Y364800D01*
X378890Y364800D01*
X378890Y367650D02*
X385890Y367650D01*
X385890Y370500D02*
X378890Y370500D01*
X396430Y371800D02*
X396430Y364800D01*
X396430Y371800D02*
X403430Y371800D01*
X403430Y364800D01*
X396430Y364800D01*
X396430Y367650D02*
X403430Y367650D01*
X403430Y370500D02*
X396430Y370500D01*
X536370Y224480D02*
X536370Y217480D01*
X536370Y224480D02*
X543370Y224480D01*
X543370Y217480D01*
X536370Y217480D01*
X536370Y220330D02*
X543370Y220330D01*
X543370Y223180D02*
X536370Y223180D01*
X553910Y224480D02*
X553910Y217480D01*
X553910Y224480D02*
X560910Y224480D01*
X560910Y217480D01*
X553910Y217480D01*
X553910Y220330D02*
X560910Y220330D01*
X560910Y223180D02*
X553910Y223180D01*
X536370Y382580D02*
X536370Y389580D01*
X543370Y389580D01*
X543370Y382580D01*
X536370Y382580D01*
X536370Y385430D02*
X543370Y385430D01*
X543370Y388280D02*
X536370Y388280D01*
X553910Y389580D02*
X553910Y382580D01*
X553910Y389580D02*
X560910Y389580D01*
X560910Y382580D01*
X553910Y382580D01*
X553910Y385430D02*
X560910Y385430D01*
X560910Y388280D02*
X553910Y388280D01*
X536370Y371800D02*
X536370Y364800D01*
X536370Y371800D02*
X543370Y371800D01*
X543370Y364800D01*
X536370Y364800D01*
X536370Y367650D02*
X543370Y367650D01*
X543370Y370500D02*
X536370Y370500D01*
X553910Y371800D02*
X553910Y364800D01*
X553910Y371800D02*
X560910Y371800D01*
X560910Y364800D01*
X553910Y364800D01*
X553910Y367650D02*
X560910Y367650D01*
X560910Y370500D02*
X553910Y370500D01*
X693850Y224480D02*
X693850Y217480D01*
X693850Y224480D02*
X700850Y224480D01*
X700850Y217480D01*
X693850Y217480D01*
X693850Y220330D02*
X700850Y220330D01*
X700850Y223180D02*
X693850Y223180D01*
X711390Y224480D02*
X711390Y217480D01*
X711390Y224480D02*
X718390Y224480D01*
X718390Y217480D01*
X711390Y217480D01*
X711390Y220330D02*
X718390Y220330D01*
X718390Y223180D02*
X711390Y223180D01*
X693850Y382580D02*
X693850Y389580D01*
X700850Y389580D01*
X700850Y382580D01*
X693850Y382580D01*
X693850Y385430D02*
X700850Y385430D01*
X700850Y388280D02*
X693850Y388280D01*
X711390Y389580D02*
X711390Y382580D01*
X711390Y389580D02*
X718390Y389580D01*
X718390Y382580D01*
X711390Y382580D01*
X711390Y385430D02*
X718390Y385430D01*
X718390Y388280D02*
X711390Y388280D01*
X693850Y371800D02*
X693850Y364800D01*
X693850Y371800D02*
X700850Y371800D01*
X700850Y364800D01*
X693850Y364800D01*
X693850Y367650D02*
X700850Y367650D01*
X700850Y370500D02*
X693850Y370500D01*
X711390Y371800D02*
X711390Y364800D01*
X711390Y371800D02*
X718390Y371800D01*
X718390Y364800D01*
X711390Y364800D01*
X711390Y367650D02*
X718390Y367650D01*
X718390Y370500D02*
X711390Y370500D01*
X851330Y224480D02*
X851330Y217480D01*
X851330Y224480D02*
X858330Y224480D01*
X858330Y217480D01*
X851330Y217480D01*
X851330Y220330D02*
X858330Y220330D01*
X858330Y223180D02*
X851330Y223180D01*
X868870Y224480D02*
X868870Y217480D01*
X868870Y224480D02*
X875870Y224480D01*
X875870Y217480D01*
X868870Y217480D01*
X868870Y220330D02*
X875870Y220330D01*
X875870Y223180D02*
X868870Y223180D01*
X851330Y382580D02*
X851330Y389580D01*
X858330Y389580D01*
X858330Y382580D01*
X851330Y382580D01*
X851330Y385430D02*
X858330Y385430D01*
X858330Y388280D02*
X851330Y388280D01*
X868870Y389580D02*
X868870Y382580D01*
X868870Y389580D02*
X875870Y389580D01*
X875870Y382580D01*
X868870Y382580D01*
X868870Y385430D02*
X875870Y385430D01*
X875870Y388280D02*
X868870Y388280D01*
X851330Y371800D02*
X851330Y364800D01*
X851330Y371800D02*
X858330Y371800D01*
X858330Y364800D01*
X851330Y364800D01*
X851330Y367650D02*
X858330Y367650D01*
X858330Y370500D02*
X851330Y370500D01*
X868870Y371800D02*
X868870Y364800D01*
X868870Y371800D02*
X875870Y371800D01*
X875870Y364800D01*
X868870Y364800D01*
X868870Y367650D02*
X875870Y367650D01*
X875870Y370500D02*
X868870Y370500D01*
X63930Y425760D02*
X63930Y432760D01*
X70930Y432760D01*
X70930Y425760D01*
X63930Y425760D01*
X63930Y428610D02*
X70930Y428610D01*
X70930Y431460D02*
X63930Y431460D01*
X81470Y432760D02*
X81470Y425760D01*
X81470Y432760D02*
X88470Y432760D01*
X88470Y425760D01*
X81470Y425760D01*
X81470Y428610D02*
X88470Y428610D01*
X88470Y431460D02*
X81470Y431460D01*
X63930Y590860D02*
X63930Y597860D01*
X70930Y597860D01*
X70930Y590860D01*
X63930Y590860D01*
X63930Y593710D02*
X70930Y593710D01*
X70930Y596560D02*
X63930Y596560D01*
X81470Y597860D02*
X81470Y590860D01*
X81470Y597860D02*
X88470Y597860D01*
X88470Y590860D01*
X81470Y590860D01*
X81470Y593710D02*
X88470Y593710D01*
X88470Y596560D02*
X81470Y596560D01*
X63930Y580080D02*
X63930Y573080D01*
X63930Y580080D02*
X70930Y580080D01*
X70930Y573080D01*
X63930Y573080D01*
X63930Y575930D02*
X70930Y575930D01*
X70930Y578780D02*
X63930Y578780D01*
X81470Y580080D02*
X81470Y573080D01*
X81470Y580080D02*
X88470Y580080D01*
X88470Y573080D01*
X81470Y573080D01*
X81470Y575930D02*
X88470Y575930D01*
X88470Y578780D02*
X81470Y578780D01*
X221410Y432760D02*
X221410Y425760D01*
X221410Y432760D02*
X228410Y432760D01*
X228410Y425760D01*
X221410Y425760D01*
X221410Y428610D02*
X228410Y428610D01*
X228410Y431460D02*
X221410Y431460D01*
X238950Y432760D02*
X238950Y425760D01*
X238950Y432760D02*
X245950Y432760D01*
X245950Y425760D01*
X238950Y425760D01*
X238950Y428610D02*
X245950Y428610D01*
X245950Y431460D02*
X238950Y431460D01*
X221410Y590860D02*
X221410Y597860D01*
X228410Y597860D01*
X228410Y590860D01*
X221410Y590860D01*
X221410Y593710D02*
X228410Y593710D01*
X228410Y596560D02*
X221410Y596560D01*
X238950Y597860D02*
X238950Y590860D01*
X238950Y597860D02*
X245950Y597860D01*
X245950Y590860D01*
X238950Y590860D01*
X238950Y593710D02*
X245950Y593710D01*
X245950Y596560D02*
X238950Y596560D01*
X221410Y580080D02*
X221410Y573080D01*
X221410Y580080D02*
X228410Y580080D01*
X228410Y573080D01*
X221410Y573080D01*
X221410Y575930D02*
X228410Y575930D01*
X228410Y578780D02*
X221410Y578780D01*
X238950Y580080D02*
X238950Y573080D01*
X238950Y580080D02*
X245950Y580080D01*
X245950Y573080D01*
X238950Y573080D01*
X238950Y575930D02*
X245950Y575930D01*
X245950Y578780D02*
X238950Y578780D01*
X378890Y432760D02*
X378890Y425760D01*
X378890Y432760D02*
X385890Y432760D01*
X385890Y425760D01*
X378890Y425760D01*
X378890Y428610D02*
X385890Y428610D01*
X385890Y431460D02*
X378890Y431460D01*
X396430Y432760D02*
X396430Y425760D01*
X396430Y432760D02*
X403430Y432760D01*
X403430Y425760D01*
X396430Y425760D01*
X396430Y428610D02*
X403430Y428610D01*
X403430Y431460D02*
X396430Y431460D01*
X378890Y590860D02*
X378890Y597860D01*
X385890Y597860D01*
X385890Y590860D01*
X378890Y590860D01*
X378890Y593710D02*
X385890Y593710D01*
X385890Y596560D02*
X378890Y596560D01*
X396430Y597860D02*
X396430Y590860D01*
X396430Y597860D02*
X403430Y597860D01*
X403430Y590860D01*
X396430Y590860D01*
X396430Y593710D02*
X403430Y593710D01*
X403430Y596560D02*
X396430Y596560D01*
X378890Y580080D02*
X378890Y573080D01*
X378890Y580080D02*
X385890Y580080D01*
X385890Y573080D01*
X378890Y573080D01*
X378890Y575930D02*
X385890Y575930D01*
X385890Y578780D02*
X378890Y578780D01*
X396430Y580080D02*
X396430Y573080D01*
X396430Y580080D02*
X403430Y580080D01*
X403430Y573080D01*
X396430Y573080D01*
X396430Y575930D02*
X403430Y575930D01*
X403430Y578780D02*
X396430Y578780D01*
X536370Y432760D02*
X536370Y425760D01*
X536370Y432760D02*
X543370Y432760D01*
X543370Y425760D01*
X536370Y425760D01*
X536370Y428610D02*
X543370Y428610D01*
X543370Y431460D02*
X536370Y431460D01*
X553910Y432760D02*
X553910Y425760D01*
X553910Y432760D02*
X560910Y432760D01*
X560910Y425760D01*
X553910Y425760D01*
X553910Y428610D02*
X560910Y428610D01*
X560910Y431460D02*
X553910Y431460D01*
X536370Y590860D02*
X536370Y597860D01*
X543370Y597860D01*
X543370Y590860D01*
X536370Y590860D01*
X536370Y593710D02*
X543370Y593710D01*
X543370Y596560D02*
X536370Y596560D01*
X553910Y597860D02*
X553910Y590860D01*
X553910Y597860D02*
X560910Y597860D01*
X560910Y590860D01*
X553910Y590860D01*
X553910Y593710D02*
X560910Y593710D01*
X560910Y596560D02*
X553910Y596560D01*
X536370Y580080D02*
X536370Y573080D01*
X536370Y580080D02*
X543370Y580080D01*
X543370Y573080D01*
X536370Y573080D01*
X536370Y575930D02*
X543370Y575930D01*
X543370Y578780D02*
X536370Y578780D01*
X553910Y580080D02*
X553910Y573080D01*
X553910Y580080D02*
X560910Y580080D01*
X560910Y573080D01*
X553910Y573080D01*
X553910Y575930D02*
X560910Y575930D01*
X560910Y578780D02*
X553910Y578780D01*
X693850Y432760D02*
X693850Y425760D01*
X693850Y432760D02*
X700850Y432760D01*
X700850Y425760D01*
X693850Y425760D01*
X693850Y428610D02*
X700850Y428610D01*
X700850Y431460D02*
X693850Y431460D01*
X711390Y432760D02*
X711390Y425760D01*
X711390Y432760D02*
X718390Y432760D01*
X718390Y425760D01*
X711390Y425760D01*
X711390Y428610D02*
X718390Y428610D01*
X718390Y431460D02*
X711390Y431460D01*
X693850Y590860D02*
X693850Y597860D01*
X700850Y597860D01*
X700850Y590860D01*
X693850Y590860D01*
X693850Y593710D02*
X700850Y593710D01*
X700850Y596560D02*
X693850Y596560D01*
X711390Y597860D02*
X711390Y590860D01*
X711390Y597860D02*
X718390Y597860D01*
X718390Y590860D01*
X711390Y590860D01*
X711390Y593710D02*
X718390Y593710D01*
X718390Y596560D02*
X711390Y596560D01*
X693850Y580080D02*
X693850Y573080D01*
X693850Y580080D02*
X700850Y580080D01*
X700850Y573080D01*
X693850Y573080D01*
X693850Y575930D02*
X700850Y575930D01*
X700850Y578780D02*
X693850Y578780D01*
X711390Y580080D02*
X711390Y573080D01*
X711390Y580080D02*
X718390Y580080D01*
X718390Y573080D01*
X711390Y573080D01*
X711390Y575930D02*
X718390Y575930D01*
X718390Y578780D02*
X711390Y578780D01*
X851330Y432760D02*
X851330Y425760D01*
X851330Y432760D02*
X858330Y432760D01*
X858330Y425760D01*
X851330Y425760D01*
X851330Y428610D02*
X858330Y428610D01*
X858330Y431460D02*
X851330Y431460D01*
X868870Y432760D02*
X868870Y425760D01*
X868870Y432760D02*
X875870Y432760D01*
X875870Y425760D01*
X868870Y425760D01*
X868870Y428610D02*
X875870Y428610D01*
X875870Y431460D02*
X868870Y431460D01*
X851330Y590860D02*
X851330Y597860D01*
X858330Y597860D01*
X858330Y590860D01*
X851330Y590860D01*
X851330Y593710D02*
X858330Y593710D01*
X858330Y596560D02*
X851330Y596560D01*
X868870Y597860D02*
X868870Y590860D01*
X868870Y597860D02*
X875870Y597860D01*
X875870Y590860D01*
X868870Y590860D01*
X868870Y593710D02*
X875870Y593710D01*
X875870Y596560D02*
X868870Y596560D01*
X851330Y580080D02*
X851330Y573080D01*
X851330Y580080D02*
X858330Y580080D01*
X858330Y573080D01*
X851330Y573080D01*
X851330Y575930D02*
X858330Y575930D01*
X858330Y578780D02*
X851330Y578780D01*
X868870Y580080D02*
X868870Y573080D01*
X868870Y580080D02*
X875870Y580080D01*
X875870Y573080D01*
X868870Y573080D01*
X868870Y575930D02*
X875870Y575930D01*
X875870Y578780D02*
X868870Y578780D01*
X63930Y634040D02*
X63930Y641040D01*
X70930Y641040D01*
X70930Y634040D01*
X63930Y634040D01*
X63930Y636890D02*
X70930Y636890D01*
X70930Y639740D02*
X63930Y639740D01*
X81470Y641040D02*
X81470Y634040D01*
X81470Y641040D02*
X88470Y641040D01*
X88470Y634040D01*
X81470Y634040D01*
X81470Y636890D02*
X88470Y636890D01*
X88470Y639740D02*
X81470Y639740D01*
X63930Y799140D02*
X63930Y806140D01*
X70930Y806140D01*
X70930Y799140D01*
X63930Y799140D01*
X63930Y801990D02*
X70930Y801990D01*
X70930Y804840D02*
X63930Y804840D01*
X81470Y806140D02*
X81470Y799140D01*
X81470Y806140D02*
X88470Y806140D01*
X88470Y799140D01*
X81470Y799140D01*
X81470Y801990D02*
X88470Y801990D01*
X88470Y804840D02*
X81470Y804840D01*
X63930Y788360D02*
X63930Y781360D01*
X63930Y788360D02*
X70930Y788360D01*
X70930Y781360D01*
X63930Y781360D01*
X63930Y784210D02*
X70930Y784210D01*
X70930Y787060D02*
X63930Y787060D01*
X81470Y788360D02*
X81470Y781360D01*
X81470Y788360D02*
X88470Y788360D01*
X88470Y781360D01*
X81470Y781360D01*
X81470Y784210D02*
X88470Y784210D01*
X88470Y787060D02*
X81470Y787060D01*
X221410Y641040D02*
X221410Y634040D01*
X221410Y641040D02*
X228410Y641040D01*
X228410Y634040D01*
X221410Y634040D01*
X221410Y636890D02*
X228410Y636890D01*
X228410Y639740D02*
X221410Y639740D01*
X238950Y641040D02*
X238950Y634040D01*
X238950Y641040D02*
X245950Y641040D01*
X245950Y634040D01*
X238950Y634040D01*
X238950Y636890D02*
X245950Y636890D01*
X245950Y639740D02*
X238950Y639740D01*
X221410Y799140D02*
X221410Y806140D01*
X228410Y806140D01*
X228410Y799140D01*
X221410Y799140D01*
X221410Y801990D02*
X228410Y801990D01*
X228410Y804840D02*
X221410Y804840D01*
X238950Y806140D02*
X238950Y799140D01*
X238950Y806140D02*
X245950Y806140D01*
X245950Y799140D01*
X238950Y799140D01*
X238950Y801990D02*
X245950Y801990D01*
X245950Y804840D02*
X238950Y804840D01*
X221410Y788360D02*
X221410Y781360D01*
X221410Y788360D02*
X228410Y788360D01*
X228410Y781360D01*
X221410Y781360D01*
X221410Y784210D02*
X228410Y784210D01*
X228410Y787060D02*
X221410Y787060D01*
X238950Y788360D02*
X238950Y781360D01*
X238950Y788360D02*
X245950Y788360D01*
X245950Y781360D01*
X238950Y781360D01*
X238950Y784210D02*
X245950Y784210D01*
X245950Y787060D02*
X238950Y787060D01*
X378890Y641040D02*
X378890Y634040D01*
X378890Y641040D02*
X385890Y641040D01*
X385890Y634040D01*
X378890Y634040D01*
X378890Y636890D02*
X385890Y636890D01*
X385890Y639740D02*
X378890Y639740D01*
X396430Y641040D02*
X396430Y634040D01*
X396430Y641040D02*
X403430Y641040D01*
X403430Y634040D01*
X396430Y634040D01*
X396430Y636890D02*
X403430Y636890D01*
X403430Y639740D02*
X396430Y639740D01*
X378890Y799140D02*
X378890Y806140D01*
X385890Y806140D01*
X385890Y799140D01*
X378890Y799140D01*
X378890Y801990D02*
X385890Y801990D01*
X385890Y804840D02*
X378890Y804840D01*
X396430Y806140D02*
X396430Y799140D01*
X396430Y806140D02*
X403430Y806140D01*
X403430Y799140D01*
X396430Y799140D01*
X396430Y801990D02*
X403430Y801990D01*
X403430Y804840D02*
X396430Y804840D01*
X378890Y788360D02*
X378890Y781360D01*
X378890Y788360D02*
X385890Y788360D01*
X385890Y781360D01*
X378890Y781360D01*
X378890Y784210D02*
X385890Y784210D01*
X385890Y787060D02*
X378890Y787060D01*
X396430Y788360D02*
X396430Y781360D01*
X396430Y788360D02*
X403430Y788360D01*
X403430Y781360D01*
X396430Y781360D01*
X396430Y784210D02*
X403430Y784210D01*
X403430Y787060D02*
X396430Y787060D01*
X536370Y641040D02*
X536370Y634040D01*
X536370Y641040D02*
X543370Y641040D01*
X543370Y634040D01*
X536370Y634040D01*
X536370Y636890D02*
X543370Y636890D01*
X543370Y639740D02*
X536370Y639740D01*
X553910Y641040D02*
X553910Y634040D01*
X553910Y641040D02*
X560910Y641040D01*
X560910Y634040D01*
X553910Y634040D01*
X553910Y636890D02*
X560910Y636890D01*
X560910Y639740D02*
X553910Y639740D01*
X536370Y799140D02*
X536370Y806140D01*
X543370Y806140D01*
X543370Y799140D01*
X536370Y799140D01*
X536370Y801990D02*
X543370Y801990D01*
X543370Y804840D02*
X536370Y804840D01*
X553910Y806140D02*
X553910Y799140D01*
X553910Y806140D02*
X560910Y806140D01*
X560910Y799140D01*
X553910Y799140D01*
X553910Y801990D02*
X560910Y801990D01*
X560910Y804840D02*
X553910Y804840D01*
X536370Y788360D02*
X536370Y781360D01*
X536370Y788360D02*
X543370Y788360D01*
X543370Y781360D01*
X536370Y781360D01*
X536370Y784210D02*
X543370Y784210D01*
X543370Y787060D02*
X536370Y787060D01*
X553910Y788360D02*
X553910Y781360D01*
X553910Y788360D02*
X560910Y788360D01*
X560910Y781360D01*
X553910Y781360D01*
X553910Y784210D02*
X560910Y784210D01*
X560910Y787060D02*
X553910Y787060D01*
X693850Y641040D02*
X693850Y634040D01*
X693850Y641040D02*
X700850Y641040D01*
X700850Y634040D01*
X693850Y634040D01*
X693850Y636890D02*
X700850Y636890D01*
X700850Y639740D02*
X693850Y639740D01*
X711390Y641040D02*
X711390Y634040D01*
X711390Y641040D02*
X718390Y641040D01*
X718390Y634040D01*
X711390Y634040D01*
X711390Y636890D02*
X718390Y636890D01*
X718390Y639740D02*
X711390Y639740D01*
X693850Y799140D02*
X693850Y806140D01*
X700850Y806140D01*
X700850Y799140D01*
X693850Y799140D01*
X693850Y801990D02*
X700850Y801990D01*
X700850Y804840D02*
X693850Y804840D01*
X711390Y806140D02*
X711390Y799140D01*
X711390Y806140D02*
X718390Y806140D01*
X718390Y799140D01*
X711390Y799140D01*
X711390Y801990D02*
X718390Y801990D01*
X718390Y804840D02*
X711390Y804840D01*
X693850Y788360D02*
X693850Y781360D01*
X693850Y788360D02*
X700850Y788360D01*
X700850Y781360D01*
X693850Y781360D01*
X693850Y784210D02*
X700850Y784210D01*
X700850Y787060D02*
X693850Y787060D01*
X711390Y788360D02*
X711390Y781360D01*
X711390Y788360D02*
X718390Y788360D01*
X718390Y781360D01*
X711390Y781360D01*
X711390Y784210D02*
X718390Y784210D01*
X718390Y787060D02*
X711390Y787060D01*
X851330Y641040D02*
X851330Y634040D01*
X851330Y641040D02*
X858330Y641040D01*
X858330Y634040D01*
X851330Y634040D01*
X851330Y636890D02*
X858330Y636890D01*
X858330Y639740D02*
X851330Y639740D01*
X868870Y641040D02*
X868870Y634040D01*
X868870Y641040D02*
X875870Y641040D01*
X875870Y634040D01*
X868870Y634040D01*
X868870Y636890D02*
X875870Y636890D01*
X875870Y639740D02*
X868870Y639740D01*
X851330Y799140D02*
X851330Y806140D01*
X858330Y806140D01*
X858330Y799140D01*
X851330Y799140D01*
X851330Y801990D02*
X858330Y801990D01*
X858330Y804840D02*
X851330Y804840D01*
X868870Y806140D02*
X868870Y799140D01*
X868870Y806140D02*
X875870Y806140D01*
X875870Y799140D01*
X868870Y799140D01*
X868870Y801990D02*
X875870Y801990D01*
X875870Y804840D02*
X868870Y804840D01*
X851330Y788360D02*
X851330Y781360D01*
X851330Y788360D02*
X858330Y788360D01*
X858330Y781360D01*
X851330Y781360D01*
X851330Y784210D02*
X858330Y784210D01*
X858330Y787060D02*
X851330Y787060D01*
X868870Y788360D02*
X868870Y781360D01*
X868870Y788360D02*
X875870Y788360D01*
X875870Y781360D01*
X868870Y781360D01*
X868870Y784210D02*
X875870Y784210D01*
X875870Y787060D02*
X868870Y787060D01*
X63930Y842320D02*
X63930Y849320D01*
X70930Y849320D01*
X70930Y842320D01*
X63930Y842320D01*
X63930Y845170D02*
X70930Y845170D01*
X70930Y848020D02*
X63930Y848020D01*
X81470Y849320D02*
X81470Y842320D01*
X81470Y849320D02*
X88470Y849320D01*
X88470Y842320D01*
X81470Y842320D01*
X81470Y845170D02*
X88470Y845170D01*
X88470Y848020D02*
X81470Y848020D01*
X63930Y1007420D02*
X63930Y1014420D01*
X70930Y1014420D01*
X70930Y1007420D01*
X63930Y1007420D01*
X63930Y1010270D02*
X70930Y1010270D01*
X70930Y1013120D02*
X63930Y1013120D01*
X81470Y1014420D02*
X81470Y1007420D01*
X81470Y1014420D02*
X88470Y1014420D01*
X88470Y1007420D01*
X81470Y1007420D01*
X81470Y1010270D02*
X88470Y1010270D01*
X88470Y1013120D02*
X81470Y1013120D01*
X63930Y996640D02*
X63930Y989640D01*
X63930Y996640D02*
X70930Y996640D01*
X70930Y989640D01*
X63930Y989640D01*
X63930Y992490D02*
X70930Y992490D01*
X70930Y995340D02*
X63930Y995340D01*
X81470Y996640D02*
X81470Y989640D01*
X81470Y996640D02*
X88470Y996640D01*
X88470Y989640D01*
X81470Y989640D01*
X81470Y992490D02*
X88470Y992490D01*
X88470Y995340D02*
X81470Y995340D01*
X221410Y849320D02*
X221410Y842320D01*
X221410Y849320D02*
X228410Y849320D01*
X228410Y842320D01*
X221410Y842320D01*
X221410Y845170D02*
X228410Y845170D01*
X228410Y848020D02*
X221410Y848020D01*
X238950Y849320D02*
X238950Y842320D01*
X238950Y849320D02*
X245950Y849320D01*
X245950Y842320D01*
X238950Y842320D01*
X238950Y845170D02*
X245950Y845170D01*
X245950Y848020D02*
X238950Y848020D01*
X221410Y1007420D02*
X221410Y1014420D01*
X228410Y1014420D01*
X228410Y1007420D01*
X221410Y1007420D01*
X221410Y1010270D02*
X228410Y1010270D01*
X228410Y1013120D02*
X221410Y1013120D01*
X238950Y1014420D02*
X238950Y1007420D01*
X238950Y1014420D02*
X245950Y1014420D01*
X245950Y1007420D01*
X238950Y1007420D01*
X238950Y1010270D02*
X245950Y1010270D01*
X245950Y1013120D02*
X238950Y1013120D01*
X221410Y996640D02*
X221410Y989640D01*
X221410Y996640D02*
X228410Y996640D01*
X228410Y989640D01*
X221410Y989640D01*
X221410Y992490D02*
X228410Y992490D01*
X228410Y995340D02*
X221410Y995340D01*
X238950Y996640D02*
X238950Y989640D01*
X238950Y996640D02*
X245950Y996640D01*
X245950Y989640D01*
X238950Y989640D01*
X238950Y992490D02*
X245950Y992490D01*
X245950Y995340D02*
X238950Y995340D01*
X378890Y849320D02*
X378890Y842320D01*
X378890Y849320D02*
X385890Y849320D01*
X385890Y842320D01*
X378890Y842320D01*
X378890Y845170D02*
X385890Y845170D01*
X385890Y848020D02*
X378890Y848020D01*
X396430Y849320D02*
X396430Y842320D01*
X396430Y849320D02*
X403430Y849320D01*
X403430Y842320D01*
X396430Y842320D01*
X396430Y845170D02*
X403430Y845170D01*
X403430Y848020D02*
X396430Y848020D01*
X378890Y1007420D02*
X378890Y1014420D01*
X385890Y1014420D01*
X385890Y1007420D01*
X378890Y1007420D01*
X378890Y1010270D02*
X385890Y1010270D01*
X385890Y1013120D02*
X378890Y1013120D01*
X396430Y1014420D02*
X396430Y1007420D01*
X396430Y1014420D02*
X403430Y1014420D01*
X403430Y1007420D01*
X396430Y1007420D01*
X396430Y1010270D02*
X403430Y1010270D01*
X403430Y1013120D02*
X396430Y1013120D01*
X378890Y996640D02*
X378890Y989640D01*
X378890Y996640D02*
X385890Y996640D01*
X385890Y989640D01*
X378890Y989640D01*
X378890Y992490D02*
X385890Y992490D01*
X385890Y995340D02*
X378890Y995340D01*
X396430Y996640D02*
X396430Y989640D01*
X396430Y996640D02*
X403430Y996640D01*
X403430Y989640D01*
X396430Y989640D01*
X396430Y992490D02*
X403430Y992490D01*
X403430Y995340D02*
X396430Y995340D01*
X536370Y849320D02*
X536370Y842320D01*
X536370Y849320D02*
X543370Y849320D01*
X543370Y842320D01*
X536370Y842320D01*
X536370Y845170D02*
X543370Y845170D01*
X543370Y848020D02*
X536370Y848020D01*
X553910Y849320D02*
X553910Y842320D01*
X553910Y849320D02*
X560910Y849320D01*
X560910Y842320D01*
X553910Y842320D01*
X553910Y845170D02*
X560910Y845170D01*
X560910Y848020D02*
X553910Y848020D01*
X536370Y1007420D02*
X536370Y1014420D01*
X543370Y1014420D01*
X543370Y1007420D01*
X536370Y1007420D01*
X536370Y1010270D02*
X543370Y1010270D01*
X543370Y1013120D02*
X536370Y1013120D01*
X553910Y1014420D02*
X553910Y1007420D01*
X553910Y1014420D02*
X560910Y1014420D01*
X560910Y1007420D01*
X553910Y1007420D01*
X553910Y1010270D02*
X560910Y1010270D01*
X560910Y1013120D02*
X553910Y1013120D01*
X536370Y996640D02*
X536370Y989640D01*
X536370Y996640D02*
X543370Y996640D01*
X543370Y989640D01*
X536370Y989640D01*
X536370Y992490D02*
X543370Y992490D01*
X543370Y995340D02*
X536370Y995340D01*
X553910Y996640D02*
X553910Y989640D01*
X553910Y996640D02*
X560910Y996640D01*
X560910Y989640D01*
X553910Y989640D01*
X553910Y992490D02*
X560910Y992490D01*
X560910Y995340D02*
X553910Y995340D01*
X693850Y849320D02*
X693850Y842320D01*
X693850Y849320D02*
X700850Y849320D01*
X700850Y842320D01*
X693850Y842320D01*
X693850Y845170D02*
X700850Y845170D01*
X700850Y848020D02*
X693850Y848020D01*
X711390Y849320D02*
X711390Y842320D01*
X711390Y849320D02*
X718390Y849320D01*
X718390Y842320D01*
X711390Y842320D01*
X711390Y845170D02*
X718390Y845170D01*
X718390Y848020D02*
X711390Y848020D01*
X693850Y1007420D02*
X693850Y1014420D01*
X700850Y1014420D01*
X700850Y1007420D01*
X693850Y1007420D01*
X693850Y1010270D02*
X700850Y1010270D01*
X700850Y1013120D02*
X693850Y1013120D01*
X711390Y1014420D02*
X711390Y1007420D01*
X711390Y1014420D02*
X718390Y1014420D01*
X718390Y1007420D01*
X711390Y1007420D01*
X711390Y1010270D02*
X718390Y1010270D01*
X718390Y1013120D02*
X711390Y1013120D01*
X693850Y996640D02*
X693850Y989640D01*
X693850Y996640D02*
X700850Y996640D01*
X700850Y989640D01*
X693850Y989640D01*
X693850Y992490D02*
X700850Y992490D01*
X700850Y995340D02*
X693850Y995340D01*
X711390Y996640D02*
X711390Y989640D01*
X711390Y996640D02*
X718390Y996640D01*
X718390Y989640D01*
X711390Y989640D01*
X711390Y992490D02*
X718390Y992490D01*
X718390Y995340D02*
X711390Y995340D01*
X851330Y849320D02*
X851330Y842320D01*
X851330Y849320D02*
X858330Y849320D01*
X858330Y842320D01*
X851330Y842320D01*
X851330Y845170D02*
X858330Y845170D01*
X858330Y848020D02*
X851330Y848020D01*
X868870Y849320D02*
X868870Y842320D01*
X868870Y849320D02*
X875870Y849320D01*
X875870Y842320D01*
X868870Y842320D01*
X868870Y845170D02*
X875870Y845170D01*
X875870Y848020D02*
X868870Y848020D01*
X851330Y1007420D02*
X851330Y1014420D01*
X858330Y1014420D01*
X858330Y1007420D01*
X851330Y1007420D01*
X851330Y1010270D02*
X858330Y1010270D01*
X858330Y1013120D02*
X851330Y1013120D01*
X868870Y1014420D02*
X868870Y1007420D01*
X868870Y1014420D02*
X875870Y1014420D01*
X875870Y1007420D01*
X868870Y1007420D01*
X868870Y1010270D02*
X875870Y1010270D01*
X875870Y1013120D02*
X868870Y1013120D01*
X851330Y996640D02*
X851330Y989640D01*
X851330Y996640D02*
X858330Y996640D01*
X858330Y989640D01*
X851330Y989640D01*
X851330Y992490D02*
X858330Y992490D01*
X858330Y995340D02*
X851330Y995340D01*
X868870Y996640D02*
X868870Y989640D01*
X868870Y996640D02*
X875870Y996640D01*
X875870Y989640D01*
X868870Y989640D01*
X868870Y992490D02*
X875870Y992490D01*
X875870Y995340D02*
X868870Y995340D01*
M02*
