M48
;GenerationSoftware,Autodesk,EAGLE,9.6.2*%
;CreationDate,2023-02-16T17:16:57Z*%
FMAT,2
ICI,OFF
METRIC,TZ,000.000
T3C0.305
T2C0.350
T1C1.016
%
G90
M71
T1
X61341Y8890
X13843Y99822
X14097Y102362
X1397Y102362
X1143Y99822
X1397Y97282
X1143Y94742
X1397Y92202
X1143Y89662
X1397Y87122
X1143Y84582
X29591Y84582
X29845Y87122
X29591Y89662
X29845Y92202
X29591Y94742
X29845Y97282
X29591Y99822
X29845Y102362
X16891Y99822
X17145Y97282
X16891Y94742
X17145Y92202
X16891Y89662
X17145Y87122
X16891Y84582
X45339Y84582
X45593Y87122
X45339Y89662
X45593Y92202
X45339Y94742
X45593Y97282
X45339Y99822
X45593Y102362
X32893Y102362
X32639Y99822
X32893Y97282
X32639Y94742
X32893Y92202
X32639Y89662
X32893Y87122
X32639Y84582
X61087Y84582
X61341Y87122
X61087Y89662
X61341Y92202
X61087Y94742
X61341Y97282
X61087Y99822
X61341Y102362
X48641Y102362
X48387Y99822
X48641Y97282
X48387Y94742
X48641Y92202
X48387Y89662
X48641Y87122
X48387Y84582
X76835Y84582
X77089Y87122
X76835Y89662
X77089Y92202
X1143Y73914
X76835Y94742
X77089Y97282
X76835Y99822
X77089Y102362
X64389Y102362
X64135Y99822
X64389Y97282
X64135Y94742
X13843Y48006
X64389Y92202
X64135Y89662
X64389Y87122
X64135Y84582
X92583Y84582
X92837Y87122
X92583Y89662
X92837Y92202
X92583Y94742
X92837Y97282
X92583Y99822
X92837Y102362
X80137Y102362
X79883Y99822
X80137Y97282
X79883Y94742
X80137Y92202
X79883Y89662
X80137Y87122
X13843Y1270
X14097Y3810
X13843Y6350
X14097Y8890
X13843Y11430
X14097Y13970
X13843Y16510
X14097Y19050
X1397Y19050
X1143Y16510
X1397Y13970
X1143Y11430
X1397Y8890
X1143Y6350
X1397Y3810
X1143Y1270
X29591Y1270
X29845Y3810
X29591Y6350
X29845Y8890
X29591Y11430
X29845Y13970
X29591Y16510
X29845Y19050
X17145Y19050
X16891Y16510
X17145Y13970
X16891Y11430
X17145Y8890
X16891Y6350
X17145Y3810
X16891Y1270
X45339Y1270
X45593Y3810
X45339Y6350
X45593Y8890
X45339Y11430
X45593Y13970
X45339Y16510
X45593Y19050
X32893Y19050
X32639Y16510
X32893Y13970
X32639Y11430
X32893Y8890
X32639Y6350
X32893Y3810
X32639Y1270
X61087Y1270
X61341Y3810
X61087Y6350
X79883Y84582
X61087Y11430
X61341Y13970
X61087Y16510
X61341Y19050
X48641Y19050
X48387Y16510
X48641Y13970
X48387Y11430
X48641Y8890
X48387Y6350
X48641Y3810
X48387Y1270
X76835Y1270
X77089Y3810
X76835Y6350
X77089Y8890
X76835Y11430
X77089Y13970
X76835Y16510
X77089Y19050
X64389Y19050
X64135Y16510
X64389Y13970
X64135Y11430
X64389Y8890
X64135Y6350
X64389Y3810
X64135Y1270
X92583Y1270
X92837Y3810
X92583Y6350
X92837Y8890
X92583Y11430
X92837Y13970
X92583Y16510
X92837Y19050
X80137Y19050
X79883Y16510
X80137Y13970
X79883Y11430
X80137Y8890
X79883Y6350
X80137Y3810
X79883Y1270
X13843Y22098
X14097Y24638
X13843Y27178
X14097Y29718
X13843Y32258
X14097Y34798
X13843Y37338
X14097Y39878
X1397Y39878
X1143Y37338
X1397Y34798
X1143Y32258
X1397Y29718
X1143Y27178
X1397Y24638
X1143Y22098
X29591Y22098
X29845Y24638
X29591Y27178
X29845Y29718
X29591Y32258
X29845Y34798
X29591Y37338
X29845Y39878
X17145Y39878
X16891Y37338
X17145Y34798
X16891Y32258
X17145Y29718
X16891Y27178
X17145Y24638
X16891Y22098
X45339Y22098
X45593Y24638
X45339Y27178
X45593Y29718
X45339Y32258
X45593Y34798
X45339Y37338
X45593Y39878
X32893Y39878
X32639Y37338
X32893Y34798
X32639Y32258
X32893Y29718
X32639Y27178
X32893Y24638
X32639Y22098
X61087Y22098
X61341Y24638
X61087Y27178
X61341Y29718
X61087Y32258
X61341Y34798
X61087Y37338
X61341Y39878
X48641Y39878
X48387Y37338
X48641Y34798
X48387Y32258
X48641Y29718
X48387Y27178
X48641Y24638
X48387Y22098
X76835Y22098
X77089Y24638
X76835Y27178
X77089Y29718
X76835Y32258
X77089Y34798
X76835Y37338
X77089Y39878
X64389Y39878
X64135Y37338
X64389Y34798
X64135Y32258
X64389Y29718
X64135Y27178
X64389Y24638
X64135Y22098
X92583Y22098
X92837Y24638
X92583Y27178
X92837Y29718
X92583Y32258
X92837Y34798
X92583Y37338
X92837Y39878
X80137Y39878
X79883Y37338
X80137Y34798
X79883Y32258
X80137Y29718
X79883Y27178
X80137Y24638
X79883Y22098
X13843Y42926
X14097Y45466
X17145Y102362
X14097Y50546
X13843Y53086
X14097Y55626
X13843Y58166
X14097Y60706
X1397Y60706
X1143Y58166
X1397Y55626
X1143Y53086
X1397Y50546
X1143Y48006
X1397Y45466
X1143Y42926
X29591Y42926
X29845Y45466
X29591Y48006
X29845Y50546
X29591Y53086
X29845Y55626
X29591Y58166
X29845Y60706
X17145Y60706
X16891Y58166
X17145Y55626
X16891Y53086
X17145Y50546
X16891Y48006
X17145Y45466
X16891Y42926
X45339Y42926
X45593Y45466
X45339Y48006
X45593Y50546
X45339Y53086
X45593Y55626
X45339Y58166
X45593Y60706
X32893Y60706
X32639Y58166
X32893Y55626
X32639Y53086
X32893Y50546
X32639Y48006
X32893Y45466
X32639Y42926
X61087Y42926
X61341Y45466
X61087Y48006
X61341Y50546
X61087Y53086
X61341Y55626
X61087Y58166
X61341Y60706
X48641Y60706
X48387Y58166
X48641Y55626
X48387Y53086
X48641Y50546
X48387Y48006
X48641Y45466
X48387Y42926
X76835Y42926
X77089Y45466
X76835Y48006
X77089Y50546
X76835Y53086
X77089Y55626
X76835Y58166
X77089Y60706
X64389Y60706
X64135Y58166
X64389Y55626
X64135Y53086
X64389Y50546
X64135Y48006
X64389Y45466
X64135Y42926
X92583Y42926
X92837Y45466
X92583Y48006
X92837Y50546
X92583Y53086
X92837Y55626
X92583Y58166
X92837Y60706
X80137Y60706
X79883Y58166
X80137Y55626
X79883Y53086
X80137Y50546
X79883Y48006
X80137Y45466
X79883Y42926
X13843Y63754
X14097Y66294
X13843Y68834
X14097Y71374
X13843Y73914
X14097Y76454
X13843Y78994
X14097Y81534
X1397Y81534
X1143Y78994
X1397Y76454
X1397Y71374
X1143Y68834
X1397Y66294
X1143Y63754
X29591Y63754
X29845Y66294
X29591Y68834
X29845Y71374
X29591Y73914
X29845Y76454
X29591Y78994
X29845Y81534
X17145Y81534
X16891Y78994
X17145Y76454
X16891Y73914
X17145Y71374
X16891Y68834
X17145Y66294
X16891Y63754
X45339Y63754
X45593Y66294
X45339Y68834
X45593Y71374
X45339Y73914
X45593Y76454
X45339Y78994
X45593Y81534
X32893Y81534
X32639Y78994
X32893Y76454
X32639Y73914
X32893Y71374
X32639Y68834
X32893Y66294
X32639Y63754
X61087Y63754
X61341Y66294
X61087Y68834
X61341Y71374
X61087Y73914
X61341Y76454
X61087Y78994
X61341Y81534
X48641Y81534
X48387Y78994
X48641Y76454
X48387Y73914
X48641Y71374
X48387Y68834
X48641Y66294
X48387Y63754
X76835Y63754
X77089Y66294
X76835Y68834
X77089Y71374
X76835Y73914
X77089Y76454
X76835Y78994
X77089Y81534
X64389Y81534
X64135Y78994
X64389Y76454
X64135Y73914
X64389Y71374
X64135Y68834
X64389Y66294
X64135Y63754
X92583Y63754
X92837Y66294
X92583Y68834
X92837Y71374
X92583Y73914
X92837Y76454
X92583Y78994
X92837Y81534
X80137Y81534
X79883Y78994
X80137Y76454
X79883Y73914
X80137Y71374
X79883Y68834
X80137Y66294
X79883Y63754
X13843Y84582
X14097Y87122
X13843Y89662
X14097Y92202
X13843Y94742
X14097Y97282
T2
X28448Y38608
X28448Y59436
X26797Y35306
X11049Y56134
X91440Y38608
X74041Y56134
X89789Y35306
X28813Y30864
X44196Y17780
X26797Y56134
X42545Y14478
X59944Y80264
X12700Y17780
X75692Y17780
X11049Y14478
X91805Y51692
X74041Y14478
X44561Y10036
X75692Y38608
X13065Y10036
X13065Y51692
X74041Y35306
X91805Y30864
X76058Y10036
X44196Y59436
X44561Y72520
X28813Y51692
X12700Y38608
X76058Y30864
X11049Y35306
X42545Y56134
X59944Y38608
X28813Y72520
X58293Y35306
X13065Y30864
X76058Y51692
X44196Y80264
X13065Y72520
X44561Y51692
X60309Y30864
X75692Y80264
X59944Y59436
X42545Y76962
X59944Y17780
X28448Y17780
X58293Y56134
X26797Y14478
X58293Y14478
X44196Y38608
X28448Y80264
X42545Y35306
X28813Y10036
X58293Y76962
X60309Y10036
X91440Y17780
X26797Y76962
X89789Y14478
X91440Y59436
X60309Y51692
X44561Y30864
X74041Y76962
X89789Y56134
X12700Y80264
X60309Y72520
X75692Y59436
X11049Y76962
X12700Y59436
X76058Y72520
X91440Y80264
X91805Y72520
X12700Y101092
X11049Y97790
X13065Y93348
X28448Y101092
X26797Y97790
X28813Y93348
X44196Y101092
X42545Y97790
X44561Y93348
X59944Y101092
X58293Y97790
X60309Y93348
X75692Y101092
X74041Y97790
X76058Y93348
X91440Y101092
X89789Y97790
X91805Y93348
X89789Y76962
X91805Y10036
T3
X82601Y49276
X87249Y56134
X91186Y60960
X88900Y51816
X90424Y44069
X89584Y53848
X86760Y48603
X89303Y49298
X85979Y48133
X85598Y56134
X85598Y60460
X86995Y60554
X89621Y58080
X82550Y58039
X85049Y48047
X84430Y49835
X83693Y53848
X82550Y47244
X85471Y44196
X84176Y51613
X8128Y73152
X7112Y73152
X7112Y72136
X8128Y72136
X7620Y72644
X5588Y64516
X10541Y65024
X12573Y65024
X8509Y65024
X3861Y70104
X8509Y76962
X12446Y81788
X10160Y72644
X11684Y64897
X10844Y74676
X8020Y69431
X10563Y70126
X7239Y68961
X6858Y76962
X6858Y81288
X8255Y81382
X10881Y78908
X3810Y78867
X6309Y68875
X5690Y70663
X4953Y74676
X3810Y68072
X6731Y65024
X5436Y72441
X23876Y73152
X22860Y73152
X22860Y72136
X23876Y72136
X23368Y72644
X21336Y64516
X26289Y65024
X28321Y65024
X24257Y65024
X19609Y70104
X24257Y76962
X28194Y81788
X25908Y72644
X27432Y64897
X26592Y74676
X23768Y69431
X26311Y70126
X22987Y68961
X22606Y76962
X22606Y81288
X24003Y81382
X26629Y78908
X19558Y78867
X22057Y68875
X21438Y70663
X20701Y74676
X19558Y68072
X22479Y65024
X21184Y72441
X39624Y73152
X38608Y73152
X38608Y72136
X39624Y72136
X39116Y72644
X37084Y64516
X42037Y65024
X44069Y65024
X40005Y65024
X35357Y70104
X40005Y76962
X43942Y81788
X41656Y72644
X43180Y64897
X42340Y74676
X39516Y69431
X42059Y70126
X38735Y68961
X38354Y76962
X38354Y81288
X39751Y81382
X42377Y78908
X35306Y78867
X37805Y68875
X37186Y70663
X36449Y74676
X35306Y68072
X38227Y65024
X36932Y72441
X55372Y73152
X54356Y73152
X54356Y72136
X55372Y72136
X54864Y72644
X52832Y64516
X57785Y65024
X59817Y65024
X55753Y65024
X51105Y70104
X55753Y76962
X59690Y81788
X57404Y72644
X58928Y64897
X58088Y74676
X55264Y69431
X57807Y70126
X54483Y68961
X54102Y76962
X54102Y81288
X55499Y81382
X58125Y78908
X51054Y78867
X53553Y68875
X52934Y70663
X52197Y74676
X51054Y68072
X53975Y65024
X52680Y72441
X71120Y73152
X70104Y73152
X70104Y72136
X71120Y72136
X70612Y72644
X68580Y64516
X73533Y65024
X75565Y65024
X71501Y65024
X66853Y70104
X71501Y76962
X75438Y81788
X73152Y72644
X74676Y64897
X8128Y10668
X71012Y69431
X73555Y70126
X70231Y68961
X7112Y10668
X69850Y76962
X69850Y81288
X71247Y81382
X73873Y78908
X66802Y78867
X69301Y68875
X68682Y70663
X67945Y74676
X66802Y68072
X69723Y65024
X68428Y72441
X86868Y73152
X85852Y73152
X85852Y72136
X86868Y72136
X86360Y72644
X84328Y64516
X89281Y65024
X91313Y65024
X87249Y65024
X82601Y70104
X87249Y76962
X91186Y81788
X88900Y72644
X7112Y9652
X90424Y64897
X8128Y9652
X89584Y74676
X86760Y69431
X89303Y70126
X85979Y68961
X7620Y10160
X85598Y76962
X85598Y81288
X86995Y81382
X89621Y78908
X82550Y78867
X85049Y68875
X84430Y70663
X83693Y74676
X82550Y68072
X85471Y65024
X84176Y72441
X8128Y93980
X7112Y93980
X7112Y92964
X8128Y92964
X7620Y93472
X5588Y85344
X10541Y85852
X12573Y85852
X8509Y85852
X3861Y90932
X8509Y97790
X12446Y102616
X10160Y93472
X5588Y2032
X11684Y85725
X10541Y2540
X10844Y95504
X8020Y90259
X10563Y90954
X7239Y89789
X12573Y2540
X6858Y97790
X6858Y102116
X8255Y102210
X10881Y99736
X3810Y99695
X6309Y89703
X5690Y91491
X4953Y95504
X3810Y88900
X6731Y85852
X5436Y93269
X23876Y93980
X22860Y93980
X22860Y92964
X23876Y92964
X23368Y93472
X21336Y85344
X26289Y85852
X28321Y85852
X24257Y85852
X19609Y90932
X24257Y97790
X28194Y102616
X25908Y93472
X8509Y2540
X27432Y85725
X3861Y7620
X26592Y95504
X23768Y90259
X26311Y90954
X22987Y89789
X8509Y14478
X22606Y97790
X22606Y102116
X24003Y102210
X26629Y99736
X19558Y99695
X22057Y89703
X21438Y91491
X20701Y95504
X19558Y88900
X22479Y85852
X21184Y93269
X39624Y93980
X38608Y93980
X38608Y92964
X39624Y92964
X39116Y93472
X37084Y85344
X42037Y85852
X44069Y85852
X40005Y85852
X35357Y90932
X40005Y97790
X43942Y102616
X41656Y93472
X12446Y19304
X43180Y85725
X10160Y10160
X42340Y95504
X39516Y90259
X42059Y90954
X38735Y89789
X11684Y2413
X38354Y97790
X38354Y102116
X39751Y102210
X42377Y99736
X35306Y99695
X37805Y89703
X37186Y91491
X36449Y95504
X35306Y88900
X38227Y85852
X36932Y93269
X55372Y93980
X54356Y93980
X54356Y92964
X55372Y92964
X54864Y93472
X52832Y85344
X57785Y85852
X59817Y85852
X55753Y85852
X51105Y90932
X55753Y97790
X59690Y102616
X57404Y93472
X10844Y12192
X58928Y85725
X8020Y6947
X58088Y95504
X55264Y90259
X57807Y90954
X54483Y89789
X10563Y7642
X54102Y97790
X54102Y102116
X55499Y102210
X58125Y99736
X51054Y99695
X53553Y89703
X52934Y91491
X52197Y95504
X51054Y88900
X53975Y85852
X52680Y93269
X71120Y93980
X70104Y93980
X70104Y92964
X71120Y92964
X70612Y93472
X68580Y85344
X73533Y85852
X75565Y85852
X71501Y85852
X66853Y90932
X71501Y97790
X75438Y102616
X73152Y93472
X7239Y6477
X74676Y85725
X6858Y14478
X73836Y95504
X71012Y90259
X73555Y90954
X70231Y89789
X6858Y18804
X69850Y97790
X69850Y102116
X71247Y102210
X73873Y99736
X66802Y99695
X69301Y89703
X68682Y91491
X67945Y95504
X66802Y88900
X69723Y85852
X68428Y93269
X86868Y93980
X85852Y93980
X85852Y92964
X86868Y92964
X86360Y93472
X84328Y85344
X89281Y85852
X91313Y85852
X87249Y85852
X82601Y90932
X87249Y97790
X91186Y102616
X88900Y93472
X8255Y18898
X90424Y85725
X10881Y16424
X89584Y95504
X86760Y90259
X89303Y90954
X85979Y89789
X3810Y16383
X85598Y97790
X85598Y102116
X86995Y102210
X89621Y99736
X82550Y99695
X85049Y89703
X84430Y91491
X83693Y95504
X82550Y88900
X85471Y85852
X84176Y93269
X6309Y6391
X5690Y8179
X4953Y12192
X3810Y5588
X6731Y2540
X5436Y9957
X23876Y10668
X22860Y10668
X22860Y9652
X23876Y9652
X23368Y10160
X21336Y2032
X26289Y2540
X28321Y2540
X24257Y2540
X19609Y7620
X24257Y14478
X28194Y19304
X25908Y10160
X27432Y2413
X26592Y12192
X23768Y6947
X26311Y7642
X22987Y6477
X22606Y14478
X22606Y18804
X24003Y18898
X26629Y16424
X19558Y16383
X22057Y6391
X21438Y8179
X20701Y12192
X19558Y5588
X22479Y2540
X21184Y9957
X39624Y10668
X38608Y10668
X38608Y9652
X39624Y9652
X39116Y10160
X37084Y2032
X42037Y2540
X44069Y2540
X40005Y2540
X35357Y7620
X40005Y14478
X43942Y19304
X41656Y10160
X43180Y2413
X42340Y12192
X39516Y6947
X42059Y7642
X38735Y6477
X38354Y14478
X38354Y18804
X39751Y18898
X42377Y16424
X35306Y16383
X37805Y6391
X37186Y8179
X36449Y12192
X35306Y5588
X38227Y2540
X36932Y9957
X55372Y10668
X54356Y10668
X54356Y9652
X55372Y9652
X54864Y10160
X52832Y2032
X57785Y2540
X59817Y2540
X55753Y2540
X51105Y7620
X55753Y14478
X59690Y19304
X57404Y10160
X58928Y2413
X58088Y12192
X55264Y6947
X57807Y7642
X54483Y6477
X54102Y14478
X54102Y18804
X55499Y18898
X58125Y16424
X51054Y16383
X53553Y6391
X52934Y8179
X52197Y12192
X51054Y5588
X53975Y2540
X52680Y9957
X71120Y10668
X70104Y10668
X70104Y9652
X71120Y9652
X70612Y10160
X68580Y2032
X73533Y2540
X75565Y2540
X71501Y2540
X66853Y7620
X71501Y14478
X75438Y19304
X73152Y10160
X74676Y2413
X73836Y12192
X71012Y6947
X73555Y7642
X70231Y6477
X69850Y14478
X69850Y18804
X71247Y18898
X73873Y16424
X66802Y16383
X69301Y6391
X68682Y8179
X67945Y12192
X66802Y5588
X69723Y2540
X68428Y9957
X86868Y10668
X85852Y10668
X85852Y9652
X86868Y9652
X86360Y10160
X84328Y2032
X89281Y2540
X91313Y2540
X87249Y2540
X82601Y7620
X87249Y14478
X91186Y19304
X88900Y10160
X90424Y2413
X89584Y12192
X86760Y6947
X89303Y7642
X85979Y6477
X85598Y14478
X85598Y18804
X86995Y18898
X89621Y16424
X82550Y16383
X85049Y6391
X84430Y8179
X83693Y12192
X82550Y5588
X85471Y2540
X84176Y9957
X8128Y31496
X7112Y31496
X7112Y30480
X8128Y30480
X7620Y30988
X5588Y22860
X10541Y23368
X12573Y23368
X8509Y23368
X3861Y28448
X8509Y35306
X12446Y40132
X10160Y30988
X11684Y23241
X10844Y33020
X8020Y27775
X10563Y28470
X7239Y27305
X6858Y35306
X6858Y39632
X8255Y39726
X10881Y37252
X3810Y37211
X6309Y27219
X5690Y29007
X4953Y33020
X3810Y26416
X6731Y23368
X5436Y30785
X23876Y31496
X22860Y31496
X22860Y30480
X23876Y30480
X23368Y30988
X21336Y22860
X26289Y23368
X28321Y23368
X24257Y23368
X19609Y28448
X24257Y35306
X28194Y40132
X25908Y30988
X27432Y23241
X26592Y33020
X23768Y27775
X26311Y28470
X22987Y27305
X22606Y35306
X22606Y39632
X24003Y39726
X26629Y37252
X19558Y37211
X22057Y27219
X21438Y29007
X20701Y33020
X19558Y26416
X22479Y23368
X21184Y30785
X39624Y31496
X38608Y31496
X38608Y30480
X39624Y30480
X39116Y30988
X37084Y22860
X42037Y23368
X44069Y23368
X40005Y23368
X35357Y28448
X40005Y35306
X43942Y40132
X41656Y30988
X43180Y23241
X42340Y33020
X39516Y27775
X42059Y28470
X38735Y27305
X38354Y35306
X38354Y39632
X39751Y39726
X42377Y37252
X35306Y37211
X37805Y27219
X37186Y29007
X36449Y33020
X35306Y26416
X38227Y23368
X36932Y30785
X55372Y31496
X54356Y31496
X54356Y30480
X55372Y30480
X54864Y30988
X52832Y22860
X57785Y23368
X59817Y23368
X55753Y23368
X51105Y28448
X55753Y35306
X59690Y40132
X57404Y30988
X58928Y23241
X58088Y33020
X55264Y27775
X57807Y28470
X54483Y27305
X54102Y35306
X54102Y39632
X55499Y39726
X58125Y37252
X51054Y37211
X53553Y27219
X52934Y29007
X52197Y33020
X51054Y26416
X53975Y23368
X52680Y30785
X71120Y31496
X70104Y31496
X70104Y30480
X71120Y30480
X70612Y30988
X68580Y22860
X73533Y23368
X75565Y23368
X71501Y23368
X66853Y28448
X71501Y35306
X75438Y40132
X73152Y30988
X74676Y23241
X73836Y33020
X71012Y27775
X73555Y28470
X70231Y27305
X69850Y35306
X69850Y39632
X71247Y39726
X73873Y37252
X66802Y37211
X69301Y27219
X68682Y29007
X67945Y33020
X66802Y26416
X69723Y23368
X68428Y30785
X86868Y31496
X85852Y31496
X85852Y30480
X73836Y74676
X86868Y30480
X86360Y30988
X84328Y22860
X89281Y23368
X91313Y23368
X87249Y23368
X82601Y28448
X87249Y35306
X91186Y40132
X88900Y30988
X90424Y23241
X89584Y33020
X86760Y27775
X89303Y28470
X85979Y27305
X85598Y35306
X85598Y39632
X86995Y39726
X89621Y37252
X82550Y37211
X85049Y27219
X84430Y29007
X83693Y33020
X82550Y26416
X85471Y23368
X84176Y30785
X8128Y52324
X7112Y52324
X7112Y51308
X8128Y51308
X7620Y51816
X5588Y43688
X10541Y44196
X12573Y44196
X8509Y44196
X3861Y49276
X8509Y56134
X12446Y60960
X10160Y51816
X11684Y44069
X10844Y53848
X8020Y48603
X10563Y49298
X7239Y48133
X6858Y56134
X6858Y60460
X8255Y60554
X10881Y58080
X3810Y58039
X6309Y48047
X5690Y49835
X4953Y53848
X3810Y47244
X6731Y44196
X5436Y51613
X23876Y52324
X22860Y52324
X22860Y51308
X23876Y51308
X23368Y51816
X21336Y43688
X26289Y44196
X28321Y44196
X24257Y44196
X19609Y49276
X24257Y56134
X28194Y60960
X25908Y51816
X27432Y44069
X26592Y53848
X23768Y48603
X26311Y49298
X22987Y48133
X22606Y56134
X22606Y60460
X24003Y60554
X26629Y58080
X19558Y58039
X22057Y48047
X21438Y49835
X20701Y53848
X19558Y47244
X22479Y44196
X21184Y51613
X39624Y52324
X38608Y52324
X38608Y51308
X39624Y51308
X39116Y51816
X37084Y43688
X42037Y44196
X44069Y44196
X40005Y44196
X35357Y49276
X40005Y56134
X43942Y60960
X41656Y51816
X43180Y44069
X42340Y53848
X39516Y48603
X42059Y49298
X38735Y48133
X38354Y56134
X38354Y60460
X39751Y60554
X42377Y58080
X35306Y58039
X37805Y48047
X37186Y49835
X36449Y53848
X35306Y47244
X38227Y44196
X36932Y51613
X55372Y52324
X54356Y52324
X54356Y51308
X55372Y51308
X54864Y51816
X52832Y43688
X57785Y44196
X59817Y44196
X55753Y44196
X51105Y49276
X55753Y56134
X59690Y60960
X57404Y51816
X58928Y44069
X58088Y53848
X55264Y48603
X57807Y49298
X54483Y48133
X54102Y56134
X54102Y60460
X55499Y60554
X58125Y58080
X51054Y58039
X53553Y48047
X52934Y49835
X52197Y53848
X51054Y47244
X53975Y44196
X52680Y51613
X71120Y52324
X70104Y52324
X70104Y51308
X71120Y51308
X70612Y51816
X68580Y43688
X73533Y44196
X75565Y44196
X71501Y44196
X66853Y49276
X71501Y56134
X75438Y60960
X73152Y51816
X74676Y44069
X73836Y53848
X71012Y48603
X73555Y49298
X70231Y48133
X69850Y56134
X69850Y60460
X71247Y60554
X73873Y58080
X66802Y58039
X69301Y48047
X68682Y49835
X67945Y53848
X66802Y47244
X69723Y44196
X68428Y51613
X86868Y52324
X85852Y52324
X85852Y51308
X86868Y51308
X86360Y51816
X84328Y43688
X89281Y44196
X91313Y44196
X87249Y44196
M30